<?xml version="1.0" standalone="no"?>
<!DOCTYPE svg PUBLIC "-//W3C//DTD SVG 20010904//EN"
 "http://www.w3.org/TR/2001/REC-SVG-20010904/DTD/svg10.dtd">
<svg version="1.0" xmlns="http://www.w3.org/2000/svg"
 width="274.000000pt" height="18.000000pt" viewBox="0 0 274.000000 18.000000"
 preserveAspectRatio="xMidYMid meet">
<metadata>
Created by potrace 1.16, written by Peter Selinger 2001-2019
</metadata>
<g transform="translate(0.000000,18.000000) scale(0.100000,-0.100000)"
fill="#000000" stroke="none">
<path d="M2205 159 c-268 -20 -1028 -45 -1715 -55 -463 -7 -641 -22 -275 -23
423 -2 1465 -31 1850 -52 275 -15 290 -15 375 10 41 12 121 27 178 33 101 12
138 28 64 28 -56 0 -218 29 -284 51 -32 10 -65 18 -75 18 -10 -1 -63 -5 -118
-10z"/>
</g>
</svg>
