<?xml version="1.0" standalone="no"?>
<!DOCTYPE svg PUBLIC "-//W3C//DTD SVG 20010904//EN"
 "http://www.w3.org/TR/2001/REC-SVG-20010904/DTD/svg10.dtd">
<svg version="1.0" xmlns="http://www.w3.org/2000/svg"
 width="155.000000pt" height="155.000000pt" viewBox="0 0 155.000000 155.000000"
 preserveAspectRatio="xMidYMid meet" class="note">
<metadata>
Created by potrace 1.16, written by Peter Selinger 2001-2019
</metadata>
<g transform="translate(0.000000,155.000000) scale(0.100000,-0.100000)"
fill="#000000" stroke="none">
<path d="M1180 1413 c-283 -45 -566 -120 -756 -199 l-34 -14 0 -375 0 -375
-67 0 c-82 0 -135 -22 -181 -74 -64 -73 -33 -168 64 -195 52 -15 71 -14 134 5
65 19 114 64 129 119 7 25 11 162 11 371 l0 331 132 36 c160 44 292 66 456 74
l122 6 0 -287 0 -288 -40 7 c-91 15 -197 -32 -236 -106 -24 -47 -18 -78 24
-119 30 -30 47 -39 89 -45 100 -13 202 38 232 118 7 19 11 198 11 523 l0 494
-32 -1 c-18 -1 -44 -4 -58 -6z m8 -150 l-3 -57 -40 -7 c-22 -4 -92 -15 -155
-24 -132 -20 -300 -55 -404 -86 -39 -11 -79 -23 -88 -25 -15 -5 -18 1 -18 38
l0 44 88 32 c48 17 112 39 142 48 30 9 74 22 97 30 23 7 88 22 145 33 137 27
146 28 196 30 l43 1 -3 -57z"/>
</g>
</svg>
