<?xml version="1.0" standalone="no"?>
<!DOCTYPE svg PUBLIC "-//W3C//DTD SVG 20010904//EN"
 "http://www.w3.org/TR/2001/REC-SVG-20010904/DTD/svg10.dtd">
<svg version="1.0" xmlns="http://www.w3.org/2000/svg"
 width="390.000000pt" height="14.000000pt" viewBox="0 0 390.000000 14.000000"
 preserveAspectRatio="xMidYMid meet">
<metadata>
Created by potrace 1.16, written by Peter Selinger 2001-2019
</metadata>
<g transform="translate(0.000000,14.000000) scale(0.100000,-0.100000)"
fill="#000000" stroke="none">
<path d="M3375 129 c-44 -4 -235 -7 -425 -6 -190 1 -403 -3 -475 -8 -159 -12
-743 -12 -1157 -1 l-308 9 0 -35 0 -35 238 -6 c130 -4 273 -11 317 -17 96 -11
386 -13 1473 -9 l824 4 19 24 c24 29 24 53 2 73 -16 14 -30 15 -106 5 -66 -8
-108 -8 -170 1 -91 13 -113 13 -232 1z"/>
</g>
</svg>
