<?xml version="1.0" standalone="no"?>
<!DOCTYPE svg PUBLIC "-//W3C//DTD SVG 20010904//EN"
 "http://www.w3.org/TR/2001/REC-SVG-20010904/DTD/svg10.dtd">
<svg version="1.0" xmlns="http://www.w3.org/2000/svg"
 width="390.000000pt" height="14.000000pt" viewBox="0 0 390.000000 14.000000"
 preserveAspectRatio="xMidYMid meet">
<metadata>
Created by potrace 1.16, written by Peter Selinger 2001-2019
</metadata>
<g transform="translate(0.000000,14.000000) scale(0.100000,-0.100000)"
fill="#000000" stroke="none">
<path d="M14 121 c-11 -11 -2 -61 14 -81 15 -19 30 -22 105 -25 48 -2 131 0
185 4 53 4 167 5 252 1 87 -5 248 -3 365 3 162 8 282 7 525 -4 360 -16 462
-16 720 0 204 13 550 29 648 30 l62 1 0 37 0 36 -267 -7 c-148 -4 -281 -9
-298 -12 -58 -9 -735 -5 -863 6 -122 11 -1438 20 -1448 11z"/>
</g>
</svg>
